<svg viewBox="0 0 272.24 61.01" xmlns="http://www.w3.org/2000/svg"><path d="m0 0h272.24v40.71h-272.24z" fill="#fff"/><path d="m0 40.71h272.24v20.3h-272.24z" fill="#e60019"/><path d="m97.83 42.39v12.23c0 3.62-1.64 5.09-5.12 5.09s-4.5-2.31-4.5-4.97v-.74h3.15v.52c0 1.81.29 2.66 1.53 2.66s1.53-.86 1.53-2.66v-12.13h3.43z" fill="#fff"/><path d="m112.07 42.39h4.24l4.5 16.98h-3.57l-.79-3.59h-4.53l-.79 3.59h-3.57l4.5-16.98zm.46 10.59h3.34l-1.64-7.63h-.05l-1.64 7.63z" fill="#fff"/><path d="m131.18 42.39h6c3.48 0 4.67 2.55 4.67 5.09 0 3.52-2.17 5.11-5.41 5.11h-1.83v6.78h-3.43zm3.43 7.68h1.53c1.36 0 2.29-.81 2.29-2.55s-.67-2.62-2.38-2.62h-1.43v5.16z" fill="#fff"/><path d="m154.11 42.39h4.24l4.5 16.98h-3.57l-.79-3.59h-4.53l-.79 3.59h-3.57l4.5-16.98zm.46 10.59h3.34l-1.64-7.63h-.05l-1.64 7.63z" fill="#fff"/><path d="m176.7 42.39 4.15 11.63h.05v-11.63h3.15v16.98h-3.91l-4.19-11.89h-.05v11.89h-3.15v-16.98h3.96z" fill="#fff"/><g fill="#3f3a3a"><path d="m138.52 8.46 2.64 17.62h.07l2.8-17.62h4.6l2.81 17.62h.06l2.64-17.62h4.6l-4.34 23.83h-5.36l-2.68-17.29h-.07l-2.66 17.29h-5.38l-4.34-23.83z"/><path d="m163.66 15.38c.17-1.53.54-2.83 1.11-3.92s1.38-1.94 2.46-2.56c1.06-.61 2.5-.92 4.3-.92s3.24.31 4.31.92c1.07.62 1.89 1.46 2.45 2.56.56 1.09.93 2.39 1.1 3.92.17 1.52.25 3.19.25 4.99s-.08 3.49-.25 5c-.17 1.52-.54 2.82-1.1 3.91-.57 1.09-1.38 1.92-2.45 2.5s-2.5.87-4.31.87-3.24-.29-4.3-.87c-1.07-.58-1.89-1.41-2.46-2.5-.56-1.09-.93-2.39-1.11-3.91-.16-1.51-.25-3.18-.25-5s.09-3.47.25-4.99m4.67 9.08c.08 1.12.23 2.04.47 2.74.23.7.57 1.21 1 1.53.44.33 1 .49 1.72.49s1.28-.16 1.72-.49c.44-.32.77-.83 1-1.53.24-.7.39-1.61.47-2.74s.11-2.49.11-4.09-.04-2.95-.11-4.07c-.07-1.11-.23-2.03-.47-2.74-.23-.71-.56-1.23-1-1.56-.44-.32-1.01-.48-1.72-.48s-1.28.16-1.72.48c-.43.33-.77.84-1 1.56-.23.71-.39 1.62-.47 2.74s-.11 2.47-.11 4.07.04 2.96.11 4.09"/><path d="m195.04 8.46c1.99 0 3.56.51 4.67 1.52 1.11 1.02 1.67 2.56 1.67 4.62 0 1.6-.32 2.91-.96 3.92-.64 1.02-1.65 1.67-3 1.96v.07c1.2.18 2.07.57 2.63 1.17s.91 1.57 1.04 2.91c.04.45.08.93.1 1.45s.04 1.11.07 1.75c.05 1.27.11 2.24.2 2.91.13.67.42 1.13.87 1.37v.2h-5.2c-.25-.33-.41-.72-.47-1.15-.06-.44-.11-.89-.13-1.35l-.13-4.57c-.05-.94-.28-1.67-.71-2.2-.42-.54-1.14-.8-2.14-.8h-2.56v10.08h-4.81v-23.86h8.88zm-2.07 10.41c1.16 0 2.05-.27 2.67-.82.62-.54.94-1.46.94-2.76 0-2.2-1.12-3.3-3.34-3.3h-2.27v6.88z"/><path d="m208.13 8.46h4.8v19.89h8.51v3.94h-13.31z"/><path d="m235.3 8.46c1.67 0 3.02.27 4.04.82s1.82 1.32 2.39 2.34c.56 1.01.95 2.23 1.15 3.65s.3 3.01.3 4.77c0 2.09-.13 3.91-.39 5.46-.25 1.55-.7 2.82-1.31 3.82-.63 1-1.46 1.75-2.51 2.24s-2.37.73-3.97.73h-7.58v-23.83zm-.94 20.28c.85 0 1.53-.14 2.05-.43.51-.29.91-.77 1.21-1.44.3-.66.5-1.54.6-2.63.09-1.09.14-2.44.14-4.07 0-1.36-.04-2.54-.13-3.57-.09-1.02-.27-1.87-.55-2.55s-.69-1.19-1.23-1.54c-.54-.34-1.27-.51-2.19-.51h-2.03v16.75h2.13z"/><path d="m138.52 8.46 2.64 17.62h.07l2.8-17.62h4.6l2.81 17.62h.06l2.64-17.62h4.6l-4.34 23.83h-5.36l-2.68-17.29h-.07l-2.66 17.29h-5.38l-4.34-23.83z"/><path d="m163.66 15.38c.17-1.53.54-2.83 1.11-3.92s1.38-1.94 2.46-2.56c1.06-.61 2.5-.92 4.3-.92s3.24.31 4.31.92c1.07.62 1.89 1.46 2.45 2.56.56 1.09.93 2.39 1.1 3.92.17 1.52.25 3.19.25 4.99s-.08 3.49-.25 5c-.17 1.52-.54 2.82-1.1 3.91-.57 1.09-1.38 1.92-2.45 2.5s-2.5.87-4.31.87-3.24-.29-4.3-.87c-1.07-.58-1.89-1.41-2.46-2.5-.56-1.09-.93-2.39-1.11-3.91-.16-1.51-.25-3.18-.25-5s.09-3.47.25-4.99m4.67 9.08c.08 1.12.23 2.04.47 2.74.23.7.57 1.21 1 1.53.44.33 1 .49 1.72.49s1.28-.16 1.72-.49c.44-.32.77-.83 1-1.53.24-.7.39-1.61.47-2.74s.11-2.49.11-4.09-.04-2.95-.11-4.07c-.07-1.11-.23-2.03-.47-2.74-.23-.71-.56-1.23-1-1.56-.44-.32-1.01-.48-1.72-.48s-1.28.16-1.72.48c-.43.33-.77.84-1 1.56-.23.71-.39 1.62-.47 2.74s-.11 2.47-.11 4.07.04 2.96.11 4.09"/><path d="m195.04 8.46c1.99 0 3.56.51 4.67 1.52 1.11 1.02 1.67 2.56 1.67 4.62 0 1.6-.32 2.91-.96 3.92-.64 1.02-1.65 1.67-3 1.96v.07c1.2.18 2.07.57 2.63 1.17s.91 1.57 1.04 2.91c.04.45.08.93.1 1.45s.04 1.11.07 1.75c.05 1.27.11 2.24.2 2.91.13.67.42 1.13.87 1.37v.2h-5.2c-.25-.33-.41-.72-.47-1.15-.06-.44-.11-.89-.13-1.35l-.13-4.57c-.05-.94-.28-1.67-.71-2.2-.42-.54-1.14-.8-2.14-.8h-2.56v10.08h-4.81v-23.86h8.88zm-2.07 10.41c1.16 0 2.05-.27 2.67-.82.62-.54.94-1.46.94-2.76 0-2.2-1.12-3.3-3.34-3.3h-2.27v6.88z"/><path d="m208.13 8.46h4.8v19.89h8.51v3.94h-13.31z"/><path d="m235.3 8.46c1.67 0 3.02.27 4.04.82s1.82 1.32 2.39 2.34c.56 1.01.95 2.23 1.15 3.65s.3 3.01.3 4.77c0 2.09-.13 3.91-.39 5.46-.25 1.55-.7 2.82-1.31 3.82-.63 1-1.46 1.75-2.51 2.24s-2.37.73-3.97.73h-7.58v-23.83zm-.94 20.28c.85 0 1.53-.14 2.05-.43.51-.29.91-.77 1.21-1.44.3-.66.5-1.54.6-2.63.09-1.09.14-2.44.14-4.07 0-1.36-.04-2.54-.13-3.57-.09-1.02-.27-1.87-.55-2.55s-.69-1.19-1.23-1.54c-.54-.34-1.27-.51-2.19-.51h-2.03v16.75h2.13z"/><path d="m61.56 8.3c-1.93-.55-3.94.57-4.49 2.5l-2.64 9.24-6.56-10.21c-.77-1.2-2.17-1.84-3.59-1.63-1.41.21-2.57 1.22-2.96 2.6l-4.85 16.97c-.55 1.93.57 3.94 2.5 4.49.33.1.67.14 1 .14 1.58 0 3.04-1.04 3.49-2.64l2.64-9.24 6.56 10.21c.77 1.2 2.18 1.84 3.59 1.63s2.57-1.22 2.96-2.6l4.85-16.97c.55-1.93-.57-3.94-2.5-4.49z"/><path d="m91.25 8.3c-1.93-.55-3.94.57-4.49 2.5l-1.72 6.03h-8.19l1.15-4.03c.55-1.93-.57-3.94-2.5-4.49s-3.94.57-4.49 2.5l-4.85 16.97c-.55 1.93.57 3.94 2.5 4.49.33.1.67.14 1 .14 1.58 0 3.04-1.04 3.49-2.64l1.72-6.03h8.19l-1.15 4.03c-.55 1.93.57 3.94 2.5 4.49.33.1.67.14 1 .14 1.58 0 3.04-1.04 3.49-2.64l4.85-16.97c.55-1.93-.57-3.94-2.5-4.49z"/><path d="m121.94 9.6c-1.21-1.6-3.49-1.92-5.09-.71l-10.26 7.76 1.1-3.87c.55-1.93-.57-3.94-2.5-4.49s-3.94.57-4.49 2.5l-4.85 16.97c-.55 1.93.57 3.94 2.5 4.49.33.1.67.14 1 .14 1.58 0 3.04-1.04 3.49-2.64l2.08-7.29s0 0 0 0c.03.04.07.07.11.11.05.06.08.12.13.17l7.88 8.48c.72.77 1.69 1.16 2.66 1.16.89 0 1.77-.32 2.47-.97 1.47-1.37 1.56-3.67.19-5.14l-5.14-5.54 8-6.06c1.6-1.21 1.92-3.49.7-5.09z"/></g></svg>